#!OML:ASF E:\basketball\basketball\Project 1\Capture day 1\Session 1\Subject.ASF
:FULLY-SPECIFIED
:DEGREES
81
root 24.9926 15.655 -3.15054 -158.23 57.8632 -158.263
lowerback 4.76468 2.73683 -0.593924
upperback 5.7651 3.8724 3.88399
thorax 2.97969 1.97137 4.26809
lowerneck -0.754904 -6.63118 -14.4398
upperneck -8.95011 -7.60539 20.2695
head -0.98237 -3.74765 8.64508
rclavicle -1.3418e-014 5.1684e-015
rhumerus -21.7649 -24.4036 -66.3544
rradius 111.844
rwrist -8.49118
rhand -13.0815 18.0937
rfingers 7.12502
rthumb 13.0146 -11.4803
lclavicle -1.3418e-014 5.1684e-015
lhumerus -89.3129 -7.05888 110.22
lradius 61.4222
lwrist 20.4513
lhand 28.7649 33.3418
lfingers 7.12502
lthumb 52.5932 53.0885
rfemur 24.3697 -8.64766 19.4824
rtibia 22.8079
rfoot 4.50053 -4.5935
rtoes -33.9589
lfemur -41.7702 14.7409 -21.2973
ltibia 75.5006
lfoot -6.32053 -0.932281
ltoes -23.7062
82
root 25.5886 15.7 -3.43973 -156.483 58.2055 -156.55
lowerback 3.9796 3.27735 -0.39198
upperback 5.60392 4.57574 3.98884
thorax 3.20284 2.32095 4.28877
lowerneck -0.0538633 -6.91891 -15.0305
upperneck -9.16907 -8.01892 21.2261
head -1.00468 -3.99406 9.08005
rclavicle 7.33515e-014 5.40694e-014
rhumerus -20.9802 -22.1631 -67.569
rradius 111.03
rwrist -4.25868
rhand -14.822 18.9072
rfingers 7.12502
rthumb 11.3364 -10.7664
lclavicle 7.33515e-014 5.40694e-014
lhumerus -90.532 -7.44479 109.648
lradius 63.8325
lwrist 22.2714
lhand 32.4868 37.0147
lfingers 7.12502
lthumb 55.9277 54.4603
rfemur 26.4717 -8.46959 19.7513
rtibia 21.9758
rfoot 4.48616 -9.82068
rtoes -29.2342
lfemur -42.6567 15.6724 -20.8066
ltibia 70.2839
lfoot -5.94821 -0.806642
ltoes -26.5654
83
root 26.1839 15.7398 -3.728 -154.352 58.4442 -154.237
lowerback 3.42589 3.80917 0.178846
upperback 5.47805 5.28238 4.20143
thorax 3.35867 2.68983 4.21419
lowerneck 0.137547 -7.30745 -15.8643
upperneck -9.03876 -8.58284 22.1382
head -0.795619 -4.27942 9.50555
rclavicle 9.80008e-014 -3.97569e-016
rhumerus -20.2446 -19.6731 -68.6731
rradius 109.819
rwrist -0.664809
rhand -16.2399 19.1731
rfingers 7.12502
rthumb 9.96876 -10.5709
lclavicle 9.80008e-014 -3.97569e-016
lhumerus -91.4915 -8.00196 109.274
lradius 65.905
lwrist 23.9527
lhand 34.8595 39.2428
lfingers 7.12502
lthumb 58.0147 54.951
rfemur 28.661 -8.32651 20.2018
rtibia 21.1292
rfoot 4.91708 -13.8135
rtoes -28.5235
lfemur -43.0834 16.2827 -19.7021
ltibia 64.8862
lfoot -5.94536 -1.10359
ltoes -26.2005
84
root 26.7667 15.7784 -4.02274 -151.884 58.3969 -151.261
lowerback 3.32447 4.24049 1.38001
upperback 5.35622 5.88031 4.4643
thorax 3.33841 3.034 3.81674
lowerneck 0.167419 -7.64016 -16.3503
upperneck -8.88223 -9.06236 22.7145
head -0.598426 -4.51562 9.75249
rclavicle -1.05356e-013 -1.35174e-014
rhumerus -19.8319 -17.0267 -70.132
rradius 107.819
rwrist 3.15451
rhand -19.5273 21.3622
rfingers 7.12502
rthumb 6.79613 -8.50869
lclavicle -1.05356e-013 -1.35174e-014
lhumerus -92.1526 -8.49202 109.01
lradius 67.8448
lwrist 24.4183
lhand 35.4998 41.3002
lfingers 7.12502
lthumb 58.5717 56.4973
rfemur 30.8036 -8.06238 21.1173
rtibia 20.6156
rfoot 4.95219 -16.0612
rtoes -24.0898
lfemur -42.957 16.3999 -17.9219
ltibia 59.1452
lfoot -5.8731 -1.13759
ltoes -25.8175
85
root 27.3379 15.8296 -4.3387 -150.68 58.4825 -150.199
lowerback 2.90306 4.50851 1.86493
upperback 5.17413 6.21929 4.35179
thorax 3.42999 3.21512 3.45939
lowerneck 0.233859 -7.96344 -16.1612
upperneck -8.89296 -9.5126 22.7624
head -0.529028 -4.74862 9.70832
rclavicle -4.07509e-014 1.59028e-015
rhumerus -19.4125 -14.636 -71.9725
rradius 105.049
rwrist 6.3846
rhand -21.4471 23.4512
rfingers 7.12502
rthumb 4.94264 -6.47112
lclavicle -4.07509e-014 1.59028e-015
lhumerus -92.1164 -8.87436 108.129
lradius 69.2525
lwrist 25.0206
lhand 36.2236 42.7405
lfingers 7.12502
lthumb 59.1979 57.3361
rfemur 32.4372 -8.19369 20.7207
rtibia 20.4645
rfoot 5.69488 -16.7107
rtoes -22.0204
lfemur -42.7662 15.7479 -17.1904
ltibia 53.0302
lfoot -5.47118 -0.514609
ltoes -25.94
86
root 27.908 15.872 -4.65256 -150.122 58.6821 -149.826
lowerback 2.54565 4.81713 2.04817
upperback 5.03696 6.60751 4.08212
thorax 3.52267 3.41024 3.10739
lowerneck 0.161298 -8.37072 -16.1989
upperneck -8.78353 -10.0812 22.9829
head -0.35364 -5.02799 9.74124
rclavicle 0 -7.23576e-014
rhumerus -18.9863 -12.9867 -73.8183
rradius 101.766
rwrist 10.166
rhand -22.3076 26.3499
rfingers 7.12502
rthumb 4.11177 -3.59021
lclavicle 0 -7.23576e-014
lhumerus -91.7095 -9.67125 107.452
lradius 70.2889
lwrist 25.0357
lhand 35.4965 43.9024
lfingers 7.12502
lthumb 58.5689 59.1022
rfemur 33.8501 -8.32821 19.8984
rtibia 20.8498
rfoot 6.55331 -16.1048
rtoes -22.4045
lfemur -42.2101 15.0008 -16.7188
ltibia 46.7414
lfoot -4.62635 0.324864
ltoes -27.1596
87
root 28.4669 15.8904 -4.95809 -149.382 58.6243 -148.972
lowerback 2.50492 5.08243 2.63584
upperback 4.98381 6.9624 3.90419
thorax 3.57002 3.60826 2.60882
lowerneck -1.22659 -8.65501 -18.1837
upperneck -7.45426 -10.4497 25.1368
head 0.618532 -5.08149 10.6949
rclavicle -1.43125e-014 -4.53229e-014
rhumerus -18.3983 -11.7798 -75.6372
rradius 97.8129
rwrist 15.4681
rhand -24.8476 29.4512
rfingers 7.12502
rthumb 1.65878 -0.522058
lclavicle -1.43125e-014 -4.53229e-014
lhumerus -90.8959 -10.6358 106.844
lradius 71.1604
lwrist 24.9304
lhand 38.1698 32.8045
lfingers 7.12502
lthumb 60.8614 45.6475
rfemur 34.909 -8.42478 19.5653
rtibia 22.2301
rfoot 7.39576 -14.6396
rtoes -27.232
lfemur -41.1918 14.0482 -15.6627
ltibia 40.3316
lfoot -3.40009 1.43521
ltoes -28.8612
88
root 29.0123 15.8935 -5.26149 -148.736 58.5032 -148.215
lowerback 2.38288 5.20896 3.13321
upperback 5.09644 7.12975 3.82573
thorax 3.82425 3.71312 2.28516
lowerneck -2.24741 -8.98875 -19.3808
upperneck -6.95754 -10.8138 26.4572
head 1.20211 -5.16343 11.2837
rclavicle -7.99114e-014 2.14687e-014
rhumerus -17.3149 -10.5307 -77.3933
rradius 93.3046
rwrist 21.9337
rhand -28.9742 31.6745
rfingers 7.12502
rthumb -2.32676 1.70748
lclavicle -7.99114e-014 2.14687e-014
lhumerus -88.8951 -11.2253 106.033
lradius 70.9478
lwrist 24.2704
lhand 35.0944 40.9224
lfingers 7.12502
lthumb 58.2194 56.4454
rfemur 35.4611 -8.54744 19.241
rtibia 24.4784
rfoot 7.93126 -12.5205
rtoes -34.3972
lfemur -39.9281 12.508 -14.3166
ltibia 34.1192
lfoot -2.43671 3.28141
ltoes -28.4234
89
root 29.5506 15.8976 -5.57088 -148.289 58.4387 -147.803
lowerback 2.30375 5.23358 3.53633
upperback 5.14768 7.15862 3.67787
thorax 3.99146 3.74473 1.9316
lowerneck -3.14038 -9.28482 -19.9811
upperneck -6.76435 -11.0938 27.2146
head 1.58556 -5.21911 11.5907
rclavicle -8.88567e-014 1.59028e-014
rhumerus -16.0229 -9.38032 -79.1773
rradius 88.2621
rwrist 28.5387
rhand -33.0585 32.3102
rfingers 7.12502
rthumb -6.2707 2.42304
lclavicle -8.88567e-014 1.59028e-014
lhumerus -87.0142 -12.0533 105.683
lradius 71.3032
lwrist 23.6234
lhand 32.8932 38.6945
lfingers 7.12502
lthumb 56.2875 55.8589
rfemur 35.138 -8.42526 18.8314
rtibia 27.6499
rfoot 6.78363 -11.1647
rtoes -33.15
lfemur -38.6427 10.7573 -13.0628
ltibia 28.2492
lfoot -0.286005 4.61062
ltoes -36.5336
90
root 30.0983 15.9033 -5.8686 -148.473 58.7198 -148.103
lowerback 2.62353 5.26633 3.40593
upperback 4.90582 7.21048 3.24894
thorax 3.59743 3.75994 1.50987
lowerneck -3.6683 -9.545 -19.5307
upperneck -6.63623 -11.3967 27.0995
head 1.74747 -5.32945 11.401
rclavicle -2.68359e-014 -3.57812e-014
rhumerus -14.9419 -8.68461 -81.2215
rradius 83.2398
rwrist 33.1512
rhand -33.6405 31.741
rfingers 7.12502
rthumb -6.83256 1.87129
lclavicle -2.68359e-014 -3.57812e-014
lhumerus -84.8632 -12.8115 104.956
lradius 70.5257
lwrist 22.655
lhand 30.7083 37.2684
lfingers 7.12502
lthumb 54.3426 55.8722
rfemur 34.4278 -8.06667 18.2158
rtibia 31.5456
rfoot 6.09837 -9.56386
rtoes -34.0849
lfemur -37.1397 9.48894 -12.4105
ltibia 22.9651
lfoot 1.51459 6.03122
ltoes -35.3352
91
root 30.6394 15.8784 -6.15104 -148.94 59.059 -148.565
lowerback 2.70638 5.26214 2.9227
upperback 4.91794 7.20097 3.00463
thorax 3.53403 3.73846 1.51202
lowerneck -3.01764 -9.80775 -17.2321
upperneck -7.88071 -11.7073 24.9601
head 1.01337 -5.58823 10.2547
rclavicle 8.72665e-014 9.54166e-015
rhumerus -13.2793 -6.81554 -83.2231
rradius 77.7937
rwrist 30.405
rhand -32.7568 33.335
rfingers 7.12502
rthumb -5.97946 3.43935
lclavicle 8.72665e-014 9.54166e-015
lhumerus -82.4242 -13.4587 104.403
lradius 69.9157
lwrist 21.6953
lhand 28.6723 36.2335
lfingers 7.12502
lthumb 52.5094 56.0316
rfemur 33.4347 -7.63542 17.637
rtibia 36.0896
rfoot 5.58008 -7.85699
rtoes -36.5145
lfemur -35.4372 8.92694 -12.3604
ltibia 18.2841
lfoot 3.48561 6.02821
ltoes -39.8679
92
root 31.1785 15.8363 -6.4179 -149.139 59.333 -148.347
lowerback 3.23402 5.18163 2.6016
upperback 4.89565 7.11515 2.91025
thorax 3.18745 3.68627 1.52888
lowerneck -2.85572 -9.87515 -17.2484
upperneck -8.20511 -11.7573 25.2062
head 0.93089 -5.62623 10.353
rclavicle 7.39479e-014 1.43125e-014
rhumerus -11.5231 -4.7609 -85.1398
rradius 72.0361
rwrist 27.3854
rhand -31.1335 35.6847
rfingers 7.12502
rthumb -4.41209 5.7507
lclavicle 7.39479e-014 1.43125e-014
lhumerus -79.9376 -14.0567 104.052
lradius 68.84
lwrist 20.9341
lhand 26.4436 34.6615
lfingers 7.12502
lthumb 50.4832 55.6268
rfemur 32.3649 -7.00055 17.6549
rtibia 40.9976
rfoot 5.19042 -6.54803
rtoes -38.8243
lfemur -33.6959 8.9931 -12.1908
ltibia 14.6277
lfoot 5.08645 6.62185
ltoes -36.5397
93
root 31.7161 15.7853 -6.68437 -149.996 59.8222 -148.877
lowerback 3.40295 5.0502 1.58459
upperback 5.18902 6.93874 2.9939
thorax 3.26718 3.56971 2.16672
lowerneck -2.4302 -9.77304 -16.558
upperneck -9.27022 -11.5019 24.5091
head 0.400554 -5.55205 10.074
rclavicle 8.38871e-014 7.95139e-015
rhumerus -9.12343 -2.52934 -86.4487
rradius 65.9186
rwrist 25.1647
rhand -29.9255 37.9285
rfingers 7.12502
rthumb -3.24555 7.97343
lclavicle 8.38871e-014 7.95139e-015
lhumerus -76.6737 -14.4879 103.996
lradius 67.2911
lwrist 20.144
lhand 23.7713 33.8935
lfingers 7.12502
lthumb 48.0308 56.092
rfemur 31.0593 -6.46217 17.1342
rtibia 46.2103
rfoot 4.57738 -5.66845
rtoes -40.1972
lfemur -32.0813 9.46274 -12.8628
ltibia 12.0056
lfoot 6.2629 6.11741
ltoes -37.171
